<?xml version="1.0" encoding="UTF-8"?>
<svg version="1.1" xmlns="http://www.w3.org/2000/svg" width="512" height="512">
<path d="M0 0 C1.01790619 0.00215515 2.03581238 0.0043103 3.08456421 0.00653076 C17.69363523 0.05620146 32.02575853 0.30709809 46.375 3.3125 C47.34985352 3.51117676 48.32470703 3.70985352 49.32910156 3.91455078 C97.7109774 14.03517194 141.69928269 35.9516877 177.375 70.3125 C178.3640332 71.26068604 178.3640332 71.26068604 179.37304688 72.22802734 C188.86130305 81.37247479 197.6012044 90.66984009 205.375 101.3125 C206.23306152 102.46355017 207.09113451 103.61459177 207.94921875 104.765625 C213.98736829 112.95680614 219.34595521 121.47054105 224.375 130.3125 C224.73948242 130.94430176 225.10396484 131.57610352 225.47949219 132.22705078 C247.08534998 169.97532572 256.85198095 212.74189997 256.6875 255.9375 C256.68534485 256.95540619 256.6831897 257.97331238 256.68096924 259.02206421 C256.63129854 273.63113523 256.38040191 287.96325853 253.375 302.3125 C253.07698486 303.77478027 253.07698486 303.77478027 252.77294922 305.26660156 C242.65232806 353.6484774 220.7358123 397.63678269 186.375 433.3125 C185.74287598 433.97185547 185.11075195 434.63121094 184.45947266 435.31054688 C175.31502521 444.79880305 166.01765991 453.5387044 155.375 461.3125 C154.22394983 462.17056152 153.07290823 463.02863451 151.921875 463.88671875 C143.73224019 469.92427396 135.22961724 475.30707302 126.375 480.3125 C125.66778809 480.7146875 124.96057617 481.116875 124.23193359 481.53125 C101.09654164 494.5566741 75.92537591 503.30551461 49.9375 508.625 C49.21860596 508.77235596 48.49971191 508.91971191 47.7590332 509.0715332 C33.08339502 511.86090125 18.55831162 512.66142619 3.64770508 512.62817383 C0.70811513 512.6250221 -2.2304558 512.64854926 -5.16992188 512.67382812 C-18.54306192 512.71848737 -31.43916711 511.51301542 -44.625 509.3125 C-46.33055054 509.03031616 -46.33055054 509.03031616 -48.07055664 508.74243164 C-91.33802759 500.97044532 -132.38793216 480.98345309 -165.625 452.3125 C-166.37007813 451.67828125 -167.11515625 451.0440625 -167.8828125 450.390625 C-181.38779833 438.57948485 -194.05918743 425.82889772 -204.625 411.3125 C-205.48149066 410.16255169 -206.33826433 409.01281411 -207.1953125 407.86328125 C-213.23534209 399.67315742 -218.61867614 391.16870382 -223.625 382.3125 C-224.0271875 381.60528809 -224.429375 380.89807617 -224.84375 380.16943359 C-237.8691741 357.03404164 -246.61801461 331.86287591 -251.9375 305.875 C-252.08485596 305.15610596 -252.23221191 304.43721191 -252.3840332 303.6965332 C-255.35789088 288.05024391 -255.99800362 272.57681954 -255.9375 256.6875 C-255.93534485 255.66959381 -255.9331897 254.65168762 -255.93096924 253.60293579 C-255.88129854 238.99386477 -255.63040191 224.66174147 -252.625 210.3125 C-252.42632324 209.33764648 -252.22764648 208.36279297 -252.02294922 207.35839844 C-241.90232806 158.9765226 -219.9858123 114.98821731 -185.625 79.3125 C-184.99287598 78.65314453 -184.36075195 77.99378906 -183.70947266 77.31445312 C-174.56502521 67.82619695 -165.26765991 59.0862956 -154.625 51.3125 C-153.47394983 50.45443848 -152.32290823 49.59636549 -151.171875 48.73828125 C-142.98224019 42.70072604 -134.47961724 37.31792698 -125.625 32.3125 C-124.91778809 31.9103125 -124.21057617 31.508125 -123.48193359 31.09375 C-100.34654164 18.0683259 -75.17537591 9.31948539 -49.1875 4 C-48.46860596 3.85264404 -47.74971191 3.70528809 -47.0090332 3.5534668 C-31.36274391 0.57960912 -15.88931954 -0.06050362 0 0 Z " fill="#27488F" transform="translate(255.625,-0.3125)"/>
<path d="M0 0 C1.01790619 0.00215515 2.03581238 0.0043103 3.08456421 0.00653076 C17.69363523 0.05620146 32.02575853 0.30709809 46.375 3.3125 C47.34985352 3.51117676 48.32470703 3.70985352 49.32910156 3.91455078 C97.7109774 14.03517194 141.69928269 35.9516877 177.375 70.3125 C178.3640332 71.26068604 178.3640332 71.26068604 179.37304688 72.22802734 C188.86130305 81.37247479 197.6012044 90.66984009 205.375 101.3125 C206.23306152 102.46355017 207.09113451 103.61459177 207.94921875 104.765625 C213.98736829 112.95680614 219.34595521 121.47054105 224.375 130.3125 C224.73948242 130.94430176 225.10396484 131.57610352 225.47949219 132.22705078 C240.28218322 158.08929871 249.4576175 187.00695186 254.375 216.3125 C254.60058594 217.57449219 254.82617188 218.83648437 255.05859375 220.13671875 C257.37498695 235.68051587 256.54944695 251.64045399 256.375 267.3125 C251.84897023 263.52271156 247.53130942 259.61173172 243.37254333 255.42356873 C242.81134908 254.86252333 242.25015483 254.30147794 241.67195469 253.72343117 C239.81203921 251.86282711 237.95571238 249.9986852 236.09936523 248.13452148 C234.75855456 246.79178956 233.41751448 245.44928666 232.07626343 244.10699463 C229.19821661 241.22579669 226.32172844 238.34305492 223.44643974 235.45910454 C218.89772098 230.89682311 214.34515444 226.33839432 209.79200745 221.78053284 C200.12920527 212.10664837 190.47063725 202.42854147 180.8125 192.75 C170.38123147 182.29669963 159.94923699 171.84413001 149.51235348 161.39643532 C144.9882753 156.86738132 140.46664527 152.33590162 135.94688594 147.8025378 C133.13369454 144.98187705 130.31842391 142.16329859 127.50259018 139.34527588 C126.19965697 138.04047381 124.89758694 136.73480911 123.59645653 135.4282093 C121.8167804 133.64128945 120.03401129 131.85751149 118.25047302 130.07444763 C117.73966499 129.56004464 117.22885696 129.04564165 116.7025699 128.51565069 C113.40738393 125.22980512 109.96255864 122.26582839 106.375 119.3125 C105.23462609 118.09544151 104.1253538 116.84781157 103.0625 115.5625 C81.32542941 90.33618164 50.43542979 74.40026003 17.375 70.3125 C12.57725631 70.12541975 7.7805713 70.1266832 2.97973633 70.12719727 C0.71090596 70.12502244 -1.55742797 70.10686047 -3.82617188 70.08789062 C-38.89532308 69.94696388 -69.95151766 85.20285379 -95.625 108.3125 C-96.71361328 109.27542969 -96.71361328 109.27542969 -97.82421875 110.2578125 C-117.36485144 128.56972386 -128.80299815 154.66178261 -134.625 180.3125 C-134.90645874 181.43446777 -134.90645874 181.43446777 -135.19360352 182.57910156 C-136.94128033 190.11736756 -136.97988902 197.60571127 -136.9375 205.3125 C-136.93476578 206.34046188 -136.93476578 206.34046188 -136.93197632 207.38919067 C-136.88336244 218.25193817 -136.31822428 228.74901699 -133.625 239.3125 C-133.37556641 240.30080811 -133.37556641 240.30080811 -133.12109375 241.30908203 C-131.00899827 249.34873437 -128.05916484 257.00728495 -124.75 264.625 C-124.44682861 265.32947266 -124.14365723 266.03394531 -123.83129883 266.75976562 C-123.20566754 268.14726605 -122.53825197 269.51676557 -121.82837009 270.86310863 C-120.625 273.3125 -120.625 273.3125 -119.71768856 276.10934162 C-118.1396517 279.82615784 -116.79218384 281.76045779 -113.625 284.3125 C-105.97517034 286.52911669 -97.47694422 285.69755516 -89.60571289 285.5612793 C-87.11210264 285.55817595 -84.61848233 285.55991919 -82.12487793 285.56614685 C-76.7592613 285.56865043 -71.39546355 285.5374946 -66.03032112 285.47553062 C-58.27362997 285.38600426 -50.51764965 285.35747246 -42.76049786 285.34366272 C-30.1744819 285.31960718 -17.58925163 285.24645775 -5.00366211 285.14233398 C7.21960528 285.04131316 19.44265902 284.96347652 31.66625977 284.91674805 C32.42013058 284.91385809 33.1740014 284.91096813 33.95071679 284.9079906 C37.73279103 284.89363484 41.51486678 284.87973413 45.29694355 284.86605966 C76.65688478 284.75208626 108.0157798 284.55536265 139.375 284.3125 C139.375 295.8625 139.375 307.4125 139.375 319.3125 C144.985 319.3125 150.595 319.3125 156.375 319.3125 C155.7758545 322.417716 155.17209558 325.52182897 154.5625 328.625 C154.38235352 329.5425708 154.20220703 330.4601416 154.01660156 331.40551758 C152.9087559 336.9442557 151.65926822 342.35868535 149.890625 347.73046875 C148.17199484 356.33663947 150.24527373 364.15067652 152.3125 372.5 C152.86479653 374.7847905 153.41562767 377.06993582 153.96484375 379.35546875 C154.21097412 380.35602295 154.45710449 381.35657715 154.71069336 382.38745117 C155.38092745 385.33859953 155.87747938 388.32737629 156.375 391.3125 C138.555 391.3125 120.735 391.3125 102.375 391.3125 C102.375 379.1025 102.375 366.8925 102.375 354.3125 C34.725 354.3125 -32.925 354.3125 -102.625 354.3125 C-102.625 366.5225 -102.625 378.7325 -102.625 391.3125 C-127.87 391.8075 -127.87 391.8075 -153.625 392.3125 C-150.11101562 395.81601074 -146.59703125 399.31952148 -142.9765625 402.92919922 C-131.39697085 414.47572489 -119.82279299 426.02766525 -108.25143433 437.58244133 C-101.23217868 444.59137136 -94.21105461 451.59841062 -87.18554688 458.60107422 C-81.06424115 464.70248533 -74.94642404 470.80736888 -68.8328228 476.91650021 C-65.59368753 480.15302143 -62.35279708 483.38774117 -59.10772705 486.61831284 C-56.05669677 489.65582121 -53.01033444 492.69793194 -49.96756744 495.74371719 C-48.84698205 496.86375 -47.72466722 497.98205544 -46.60054779 499.09854126 C-45.07200493 500.61720717 -43.54967232 502.14183212 -42.02880859 503.66818237 C-41.1733847 504.52176268 -40.31796082 505.37534298 -39.43661499 506.25478935 C-37.625 508.3125 -37.625 508.3125 -37.625 510.3125 C-60.56459918 506.7273332 -82.34782062 500.63562342 -103.625 491.3125 C-104.82116943 490.79067139 -104.82116943 490.79067139 -106.04150391 490.25830078 C-127.78956243 480.65257855 -147.56235906 467.74734479 -165.625 452.3125 C-166.37394531 451.67570312 -167.12289062 451.03890625 -167.89453125 450.3828125 C-181.39020621 438.56547532 -194.06058025 425.82698412 -204.625 411.3125 C-205.48149066 410.16255169 -206.33826433 409.01281411 -207.1953125 407.86328125 C-213.23534209 399.67315742 -218.61867614 391.16870382 -223.625 382.3125 C-224.0271875 381.60528809 -224.429375 380.89807617 -224.84375 380.16943359 C-237.8691741 357.03404164 -246.61801461 331.86287591 -251.9375 305.875 C-252.08485596 305.15610596 -252.23221191 304.43721191 -252.3840332 303.6965332 C-255.35789088 288.05024391 -255.99800362 272.57681954 -255.9375 256.6875 C-255.93534485 255.66959381 -255.9331897 254.65168762 -255.93096924 253.60293579 C-255.88129854 238.99386477 -255.63040191 224.66174147 -252.625 210.3125 C-252.42632324 209.33764648 -252.22764648 208.36279297 -252.02294922 207.35839844 C-241.90232806 158.9765226 -219.9858123 114.98821731 -185.625 79.3125 C-184.99287598 78.65314453 -184.36075195 77.99378906 -183.70947266 77.31445312 C-174.56502521 67.82619695 -165.26765991 59.0862956 -154.625 51.3125 C-153.47394983 50.45443848 -152.32290823 49.59636549 -151.171875 48.73828125 C-142.98224019 42.70072604 -134.47961724 37.31792698 -125.625 32.3125 C-124.91778809 31.9103125 -124.21057617 31.508125 -123.48193359 31.09375 C-100.34654164 18.0683259 -75.17537591 9.31948539 -49.1875 4 C-48.46860596 3.85264404 -47.74971191 3.70528809 -47.0090332 3.5534668 C-31.36274391 0.57960912 -15.88931954 -0.06050362 0 0 Z " fill="#2864EF" transform="translate(255.625,-0.3125)"/>
<path d="M0 0 C0.74845184 0.00054382 1.49690369 0.00108765 2.26803589 0.00164795 C14.38668279 0.04205152 25.82413511 0.89053794 37.5 4.375 C38.22880371 4.58930664 38.95760742 4.80361328 39.70849609 5.02441406 C75.83468202 15.99400069 105.60515749 40.90409759 123.7265625 73.85546875 C128.14332211 82.62088814 131.41676496 91.67998292 134.25 101.0625 C134.44875732 101.71452393 134.64751465 102.36654785 134.85229492 103.03833008 C138.15041246 114.46511278 138.94112542 125.86237643 138.9375 137.6875 C138.9385675 138.43078552 138.93963501 139.17407104 138.94073486 139.93988037 C138.91330418 153.23805981 137.41440339 165.60939055 133.5 178.375 C133.17104736 179.46603027 133.17104736 179.46603027 132.83544922 180.57910156 C128.91953562 193.10415854 122.77178509 205.46732237 115.5 216.375 C112.4720837 216.69115564 109.64556587 216.80965919 106.61286926 216.80305481 C105.68096588 216.81267374 104.7490625 216.82229267 103.78891963 216.83220309 C100.64672594 216.86070084 97.50485918 216.86748384 94.36254883 216.87426758 C92.11747424 216.88978252 89.87240754 216.90647792 87.62734985 216.92427063 C81.51356936 216.96799381 75.39987849 216.99138489 69.28597093 217.00849748 C65.46834574 217.01949865 61.65074608 217.03378306 57.8331356 217.04901695 C47.26368833 217.09011612 36.69426369 217.12551118 26.12474537 217.13951588 C25.44799357 217.14042614 24.77124177 217.1413364 24.07398234 217.14227424 C23.39560367 217.14318453 22.71722499 217.14409483 22.01828939 217.1450327 C20.64362195 217.14688817 19.26895452 217.14875554 17.89428711 217.15063477 C16.8714617 217.15202467 16.8714617 217.15202467 15.82797315 217.15344264 C4.78443547 217.16963338 -6.25839105 217.22985891 -17.30163988 217.30893449 C-28.63920063 217.38945929 -39.9762801 217.43152132 -51.31417447 217.43789595 C-57.68027292 217.44234747 -64.04532284 217.46319808 -70.41115379 217.52399635 C-76.40094284 217.58016563 -82.38893298 217.5888199 -88.37890244 217.56095695 C-90.5771582 217.5589175 -92.77550651 217.57398776 -94.97350883 217.6074295 C-111.58050863 217.84555388 -111.58050863 217.84555388 -116.31162453 214.22096825 C-118.16522332 211.64403047 -119.36202153 209.32737099 -120.5 206.375 C-121.2537339 204.93321667 -122.01609605 203.49585467 -122.79296875 202.06640625 C-123.43620203 200.69554383 -124.0677336 199.31913035 -124.6875 197.9375 C-125.02426758 197.19870605 -125.36103516 196.45991211 -125.70800781 195.69873047 C-126.65502703 193.59756027 -127.58227873 191.48910284 -128.5 189.375 C-128.91378906 188.42753906 -129.32757813 187.48007812 -129.75390625 186.50390625 C-142.10103717 155.46660853 -140.67607407 117.95768946 -128.625 87.1875 C-127.62334195 84.89873731 -126.58162331 82.62707559 -125.5 80.375 C-125.20899414 79.76688477 -124.91798828 79.15876953 -124.61816406 78.53222656 C-108.70235573 45.77429301 -80.38824862 20.04446807 -46.125 7.5 C-43.92410539 6.7688809 -41.71607153 6.05873914 -39.5 5.375 C-38.54609375 5.07980469 -37.5921875 4.78460938 -36.609375 4.48046875 C-24.48618665 0.96474413 -12.55641232 -0.03438923 0 0 Z " fill="#FC9502" transform="translate(255.5,68.625)"/>
<path d="M0 0 C0 11.55 0 23.1 0 35 C5.61 35 11.22 35 17 35 C16.4008545 38.105216 15.79709558 41.20932897 15.1875 44.3125 C15.00735352 45.2300708 14.82720703 46.1476416 14.64160156 47.09301758 C13.5337559 52.6317557 12.28426822 58.04618535 10.515625 63.41796875 C8.79699484 72.02413947 10.87027373 79.83817652 12.9375 88.1875 C13.48979653 90.4722905 14.04062767 92.75743582 14.58984375 95.04296875 C14.83597412 96.04352295 15.08210449 97.04407715 15.33569336 98.07495117 C16.00592745 101.02609953 16.50247938 104.01487629 17 107 C-0.82 107 -18.64 107 -37 107 C-37 94.79 -37 82.58 -37 70 C-116.53 70 -196.06 70 -278 70 C-278 47.23 -278 24.46 -278 1 C-246.05042564 0.87212552 -214.10084998 0.74459736 -182.15127125 0.61781773 C-178.36679801 0.60280007 -174.58232478 0.58777827 -170.79785156 0.57275391 C-170.04453086 0.56976329 -169.29121016 0.56677268 -168.51506156 0.56369144 C-156.3677378 0.51545782 -144.22041539 0.46688963 -132.07309347 0.41819459 C-119.57956188 0.36811927 -107.08602886 0.31841092 -94.59249449 0.26903296 C-86.90291281 0.23863031 -79.21333233 0.20795208 -71.52375323 0.17690456 C-65.59602072 0.1530016 -59.66828625 0.1296128 -53.74055099 0.10640144 C-51.33179535 0.09689246 -48.92304032 0.08722526 -46.51428604 0.07737541 C-31.0093764 0.01409145 -15.50505131 -0.00857631 0 0 Z " fill="#1EA0E2" transform="translate(395,284)"/>
<path d="M0 0 C27.39064782 -0.52260495 52.70155706 10.85243676 72.42919922 29.46044922 C91.60171126 48.25153733 102.07658512 73.93756999 102.42041016 100.57711792 C102.66191295 129.51648423 93.05440879 153.93415146 73 175 C72.26912674 175.8619548 71.53825348 176.72390961 70.78523254 177.61198425 C67.32061085 180.58249785 65.69929667 180.60945544 61.19018555 180.56762695 C60.52621262 180.56835709 59.86223969 180.56908722 59.17814636 180.56983948 C56.99682148 180.56637286 54.81766759 180.52756313 52.63671875 180.48828125 C51.11929999 180.47894965 49.60186612 180.47183517 48.08442688 180.46684265 C44.10067775 180.44779966 40.11784774 180.39872383 36.13446045 180.34332275 C31.3496678 180.28305186 26.5645669 180.260201 21.77950287 180.23105621 C14.51903038 180.18265529 7.26057241 180.08682587 0 180 C0 167.79 0 155.58 0 143 C12.51039889 148.70649774 24.56111727 154.98870174 36.5690918 161.68481445 C39.34838432 163.18848512 42.16762484 164.59930738 45 166 C44.89977539 165.40531418 44.79955078 164.81062836 44.69628906 164.19792175 C43.65527176 158.01809869 42.61765669 151.8377113 41.58203125 145.65698242 C41.19488677 143.34921805 40.80686985 141.04159986 40.41796875 138.73413086 C39.85969242 135.42078933 39.30453758 132.10693779 38.75 128.79296875 C38.57500977 127.7585112 38.40001953 126.72405365 38.21972656 125.6582489 C38.05956055 124.6974794 37.89939453 123.7367099 37.734375 122.74682617 C37.52119629 121.47774666 37.52119629 121.47774666 37.30371094 120.18302917 C37 118 37 118 37 115 C38.26000977 113.66137695 38.26000977 113.66137695 40.12890625 112.17578125 C46.12492347 107.14980517 51.56600103 101.58348718 57.08422852 96.04614258 C58.95409753 94.17085437 60.82932899 92.30104535 62.70507812 90.43164062 C63.89615461 89.23990435 65.0869214 88.04785845 66.27734375 86.85546875 C66.83767807 86.29715866 67.39801239 85.73884857 67.97532654 85.16362 C70.84057333 82.34869127 70.84057333 82.34869127 73 79 C71.87980469 79.01546875 70.75960937 79.0309375 69.60546875 79.046875 C61.98974526 79.04019014 54.44868788 78.1934421 46.89160156 77.31542969 C44.96674708 77.10545738 43.03860198 76.92369857 41.10839844 76.77050781 C25.57988147 75.51658668 25.57988147 75.51658668 21.44140625 71.47964478 C18.78699936 67.67601562 17.28837049 63.4767196 15.79492188 59.11480713 C14.54733052 55.79571984 12.75154019 52.85885748 10.9375 49.82421875 C1.32469152 32.84447354 -2.36658912 19.90847587 0 0 Z " fill="#FA5D0E" transform="translate(256,104)"/>
<path d="M0 0 C19.78574856 0 19.78574856 0 27 1.625 C27.83047852 1.80321289 28.66095703 1.98142578 29.51660156 2.16503906 C66.30097285 10.45309222 97.7744001 33.2084666 118.15234375 64.78564453 C125.21316125 76.03960766 129.92739747 88.02860194 133.75 100.6875 C134.04813599 101.66553589 134.04813599 101.66553589 134.35229492 102.66333008 C137.65041246 114.09011278 138.44112542 125.48737643 138.4375 137.3125 C138.4385675 138.05578552 138.43963501 138.79907104 138.44073486 139.56488037 C138.41330418 152.86305981 136.91440339 165.23439055 133 178 C132.67104736 179.09103027 132.67104736 179.09103027 132.33544922 180.20410156 C128.79756598 191.52002773 123.43599426 206.56400574 115 215 C112.97518921 215.24050903 112.97518921 215.24050903 110.45849609 215.22705078 C109.51767181 215.22689972 108.57684753 215.22674866 107.60751343 215.22659302 C106.58976837 215.21627045 105.57202332 215.20594788 104.5234375 215.1953125 C103.48305328 215.1924826 102.44266907 215.18965271 101.37075806 215.18673706 C98.03872306 215.17551704 94.70695414 215.15040915 91.375 215.125 C89.11979554 215.11497256 86.86458688 215.1058463 84.609375 215.09765625 C79.07282546 215.07557178 73.53643173 215.04207639 68 215 C68.95656647 213.87853344 69.91391056 212.75773013 70.87158203 211.63720703 C71.40461945 211.01298859 71.93765686 210.38877014 72.48684692 209.74563599 C74.22899612 207.7358206 76.05004777 205.80960601 77.875 203.875 C85.31810487 195.50684385 91.05713623 185.46423528 95 175 C95.26087402 174.33162109 95.52174805 173.66324219 95.79052734 172.97460938 C100.1502933 161.4324246 101.57191017 150.31638031 101.5625 138.0625 C101.56600464 136.1448584 101.56600464 136.1448584 101.56958008 134.18847656 C101.16338229 110.81926833 92.33887046 88.56144148 77 71 C76.20722656 69.99259766 76.20722656 69.99259766 75.3984375 68.96484375 C56.72501464 45.83003661 27.95482773 38.96656339 0 35 C0 23.45 0 11.9 0 0 Z " fill="#FE9400" transform="translate(256,69)"/>
<path d="M0 0 C0 11.88 0 23.76 0 36 C-8.415 36.495 -8.415 36.495 -17 37 C-22.17490968 38.16852799 -26.9902813 39.37239315 -32 41 C-33.08796875 41.34933594 -34.1759375 41.69867188 -35.296875 42.05859375 C-61.56903217 51.31792719 -80.54056143 70.60194474 -92.796875 95.18359375 C-103.42238556 117.58465951 -105.18931407 146.97005896 -96.84375 170.45703125 C-91.36768187 184.38722403 -84.38053529 196.65458316 -74.1484375 207.640625 C-71.98566777 210.01573939 -69.99544386 212.48389204 -68 215 C-74.54560081 215.33089314 -81.08903735 215.55774294 -87.64111328 215.71411133 C-89.86686754 215.77930823 -92.09206865 215.86789945 -94.31591797 215.98071289 C-112.24135836 216.8669595 -112.24135836 216.8669595 -116.76138306 213.80795288 C-119.96086718 210.40003969 -121.48412712 206.34602969 -123 202 C-123.69665999 200.58985176 -124.40582685 199.18568202 -125.13671875 197.79296875 C-140.51489872 162.03966871 -143.54599073 123.63383347 -129.125 86.8125 C-128.12334195 84.52373731 -127.08162331 82.25207559 -126 80 C-125.70899414 79.39188477 -125.41798828 78.78376953 -125.11816406 78.15722656 C-109.20235573 45.39929301 -80.88824862 19.66946807 -46.625 7.125 C-44.42410539 6.3938809 -42.21607153 5.68373914 -40 5 C-39.04609375 4.70480469 -38.0921875 4.40960938 -37.109375 4.10546875 C-24.49995646 0.44873737 -13.43675921 0 0 0 Z " fill="#FED901" transform="translate(256,69)"/>
<path d="M0 0 C45.87 0 91.74 0 139 0 C139 22.77 139 45.54 139 69 C93.13 69 47.26 69 0 69 C0 46.23 0 23.46 0 0 Z " fill="#19CEFB" transform="translate(117,285)"/>
<path d="M0 0 C3 1 3 1 4.06861877 2.52923584 C4.55587685 3.51588226 4.55587685 3.51588226 5.05297852 4.52246094 C5.42669083 5.26703552 5.80040314 6.01161011 6.18544006 6.77874756 C6.57928391 7.58910461 6.97312775 8.39946167 7.37890625 9.234375 C7.79164291 10.06455139 8.20437958 10.89472778 8.62962341 11.75006104 C9.94998389 14.41217358 11.25609905 17.08101398 12.5625 19.75 C13.446392 21.5342872 14.33114737 23.318147 15.21679688 25.1015625 C16.84166152 28.3852525 18.46593551 31.66918931 20.07641602 34.95996094 C20.40045914 35.62090759 20.72450226 36.28185425 21.05836487 36.96282959 C22.12509551 39.27063654 23.05576981 41.63942453 24 44 C40.5 46.31 57 48.62 74 51 C72.3407139 54.3185722 71.36090305 55.890775 68.8671875 58.39160156 C67.91610107 59.35214447 67.91610107 59.35214447 66.94580078 60.33209229 C66.26243652 61.01140808 65.57907227 61.69072388 64.875 62.390625 C63.82094971 63.44754547 63.82094971 63.44754547 62.74560547 64.52581787 C61.26189896 66.01088353 59.77567108 67.49343381 58.28710938 68.97363281 C56.00156409 71.24844325 53.72690983 73.5337536 51.453125 75.8203125 C50.01105781 77.26105868 48.56837065 78.70118465 47.125 80.140625 C46.44163574 80.82803772 45.75827148 81.51545044 45.05419922 82.22369385 C44.4201416 82.85144714 43.78608398 83.47920044 43.1328125 84.12597656 C42.57480957 84.68238831 42.01680664 85.23880005 41.44189453 85.81207275 C40 87 40 87 38 87 C38.24234375 88.1653125 38.4846875 89.330625 38.734375 90.53125 C40.73393557 100.26452348 42.58404803 110.01633962 44.25 119.8125 C44.42499023 120.81925781 44.59998047 121.82601562 44.78027344 122.86328125 C45.63549792 127.9843035 46.20274615 132.80825036 46 138 C41.57973802 136.65194449 37.69770795 134.9051439 33.640625 132.69921875 C32.75670074 132.22184013 32.75670074 132.22184013 31.85491943 131.7348175 C29.9841401 130.72353155 28.11692173 129.70588693 26.25 128.6875 C22.61572213 126.71361258 18.97894319 124.74462956 15.33398438 122.79052734 C13.23460143 121.66304678 11.14119509 120.52429503 9.05664062 119.36962891 C7.75243164 118.67039307 7.75243164 118.67039307 6.421875 117.95703125 C5.6803418 117.55073486 4.93880859 117.14443848 4.17480469 116.72583008 C0.59542166 115.53122907 -1.95829108 116.51130255 -5.28564453 118.07226562 C-6.44749268 118.73258789 -6.44749268 118.73258789 -7.6328125 119.40625 C-8.51308105 119.89899414 -9.39334961 120.39173828 -10.30029297 120.89941406 C-11.23244629 121.42760742 -12.16459961 121.95580078 -13.125 122.5 C-23.22146723 128.12587536 -33.49180686 133.1948678 -44 138 C-43.60059995 129.83295767 -42.521197 122.05508777 -40.83203125 114.05859375 C-39.88066037 109.51616456 -39.08451825 104.9509036 -38.3125 100.375 C-38.18117676 99.61678955 -38.04985352 98.8585791 -37.91455078 98.07739258 C-37.57721122 96.05675126 -37.2865863 94.02846188 -37 92 C-36.87238281 91.11054688 -36.74476563 90.22109375 -36.61328125 89.3046875 C-37.21177864 85.73788486 -39.29339272 84.19265392 -41.875 81.75 C-42.77992188 80.87859375 -43.68484375 80.0071875 -44.6171875 79.109375 C-46.80465266 76.99017188 -46.80465266 76.99017188 -49 76 C-49 75.34 -49 74.68 -49 74 C-49.5662207 73.75975098 -50.13244141 73.51950195 -50.71582031 73.27197266 C-53.47040587 71.73804889 -55.33249671 69.89273982 -57.546875 67.6484375 C-58.39121094 66.79765625 -59.23554688 65.946875 -60.10546875 65.0703125 C-60.97816406 64.18085938 -61.85085937 63.29140625 -62.75 62.375 C-64.08224609 61.02921875 -64.08224609 61.02921875 -65.44140625 59.65625 C-67.63216969 57.44192996 -69.81812763 55.22307565 -72 53 C-71.67 52.34 -71.34 51.68 -71 51 C-68.56277304 50.48629428 -66.20297439 50.10037678 -63.73828125 49.78125 C-62.62491646 49.62613953 -62.62491646 49.62613953 -61.48905945 49.46789551 C-59.09795601 49.13672805 -56.70536677 48.81815044 -54.3125 48.5 C-52.74923379 48.28599587 -51.18608103 48.07116124 -49.62304688 47.85546875 C-48.85662369 47.75135681 -48.0902005 47.64724487 -47.30055237 47.53997803 C-45.75517508 47.32528932 -44.2111252 47.10082574 -42.66856384 46.86676025 C-39.05863323 46.33276893 -35.75666608 46.00358581 -32.09008789 46.05761719 C-28.0935518 46.0109724 -25.60197794 45.76584704 -22 44 C-17.24092787 38.66833893 -14.64339861 31.71995514 -11.8125 25.25 C-10.99123557 23.4768854 -10.16510247 21.70601728 -9.33398438 19.9375 C-7.81287207 16.68374657 -6.32100884 13.41999218 -4.86254883 10.13769531 C-3.33545358 6.70841849 -1.7102901 3.34258218 0 0 Z " fill="#FE9400" transform="translate(255,132)"/>
<path d="M0 0 C0.33 0 0.66 0 1 0 C1 37.95 1 75.9 1 115 C-6.59 118.96 -14.18 122.92 -22 127 C-30.64384428 131.57254983 -30.64384428 131.57254983 -39.28027344 136.15893555 C-41 137 -41 137 -44 138 C-43.60059995 129.83295767 -42.521197 122.05508777 -40.83203125 114.05859375 C-39.88066037 109.51616456 -39.08451825 104.9509036 -38.3125 100.375 C-38.18117676 99.61678955 -38.04985352 98.8585791 -37.91455078 98.07739258 C-37.57721122 96.05675126 -37.2865863 94.02846188 -37 92 C-36.87238281 91.11054688 -36.74476563 90.22109375 -36.61328125 89.3046875 C-37.21177864 85.73788486 -39.29339272 84.19265392 -41.875 81.75 C-42.77992188 80.87859375 -43.68484375 80.0071875 -44.6171875 79.109375 C-46.80465266 76.99017188 -46.80465266 76.99017188 -49 76 C-49 75.34 -49 74.68 -49 74 C-49.5662207 73.75975098 -50.13244141 73.51950195 -50.71582031 73.27197266 C-53.47040587 71.73804889 -55.33249671 69.89273982 -57.546875 67.6484375 C-58.39121094 66.79765625 -59.23554688 65.946875 -60.10546875 65.0703125 C-60.97816406 64.18085938 -61.85085937 63.29140625 -62.75 62.375 C-64.08224609 61.02921875 -64.08224609 61.02921875 -65.44140625 59.65625 C-67.63216969 57.44192996 -69.81812763 55.22307565 -72 53 C-71.67 52.34 -71.34 51.68 -71 51 C-68.56277304 50.48629428 -66.20297439 50.10037678 -63.73828125 49.78125 C-62.62491646 49.62613953 -62.62491646 49.62613953 -61.48905945 49.46789551 C-59.09795601 49.13672805 -56.70536677 48.81815044 -54.3125 48.5 C-52.74923379 48.28599587 -51.18608103 48.07116124 -49.62304688 47.85546875 C-48.85662369 47.75135681 -48.0902005 47.64724487 -47.30055237 47.53997803 C-45.75517508 47.32528932 -44.2111252 47.10082574 -42.66856384 46.86676025 C-39.05863323 46.33276893 -35.75666608 46.00358581 -32.09008789 46.05761719 C-28.0935518 46.0109724 -25.60197794 45.76584704 -22 44 C-17.24092787 38.66833893 -14.64339861 31.71995514 -11.8125 25.25 C-10.99123557 23.4768854 -10.16510247 21.70601728 -9.33398438 19.9375 C-7.81287207 16.68374657 -6.32100884 13.41999218 -4.86254883 10.13769531 C-3.33545358 6.70841849 -1.7102901 3.34258218 0 0 Z " fill="#FFAF00" transform="translate(255,132)"/>
<path d="M0 0 C5.61 0 11.22 0 17 0 C16.4008545 3.105216 15.79709558 6.20932897 15.1875 9.3125 C14.91728027 10.6888562 14.91728027 10.6888562 14.64160156 12.09301758 C13.5337559 17.6317557 12.28426822 23.04618535 10.515625 28.41796875 C8.79699484 37.02413947 10.87027373 44.83817652 12.9375 53.1875 C13.48979653 55.4722905 14.04062767 57.75743582 14.58984375 60.04296875 C14.95903931 61.54380005 14.95903931 61.54380005 15.33569336 63.07495117 C16.00592745 66.02609953 16.50247938 69.01487629 17 72 C-0.82 72 -18.64 72 -37 72 C-37 59.79 -37 47.58 -37 35 C-24.79 35 -12.58 35 0 35 C0 23.45 0 11.9 0 0 Z " fill="#358CCE" transform="translate(395,319)"/>
<path d="M0 0 C5.61 0 11.22 0 17 0 C17 11.55 17 23.1 17 35 C28.88 35 40.76 35 53 35 C53 47.21 53 59.42 53 72 C35.51 72 18.02 72 0 72 C4.44444444 49.77777778 4.44444444 49.77777778 6.484375 42.80078125 C7.85756134 35.34188274 6.74069552 28.87820073 4.625 21.6875 C2.61015326 14.48677275 1.05926398 7.41484789 0 0 Z " fill="#358CCF" transform="translate(100,319)"/>
<path d="M0 0 C11.88 0 23.76 0 36 0 C36 0.66 36 1.32 36 2 C34.63671875 3.3046875 34.63671875 3.3046875 32.6875 4.875 C29.13462303 7.89276766 25.99560114 11.09978852 22.875 14.5625 C16.46925519 21.58156081 9.71940404 28.28059596 3 35 C27.75 35.495 27.75 35.495 53 36 C53.33 35.01 53.66 34.02 54 33 C54 34.32 54 35.64 54 37 C36.18 37 18.36 37 0 37 C0 24.79 0 12.58 0 0 Z " fill="#2B75AE" transform="translate(358,354)"/>
<path d="M0 0 C11.55 0 23.1 0 35 0 C35 12.21 35 24.42 35 37 C17.51 37 0.02 37 -18 37 C-18 36.67 -18 36.34 -18 36 C7.245 35.505 7.245 35.505 33 35 C26.7361495 28.77542426 26.7361495 28.77542426 20.46655273 22.55664062 C15.42964275 17.53556195 10.5984728 12.42400419 6 7 C4.02 4.69 2.04 2.38 0 0 Z " fill="#2B76AF" transform="translate(118,354)"/>
</svg>
